<svg width="181" height="181" viewBox="0 0 181 181" fill="none" xmlns="http://www.w3.org/2000/svg">
<rect x="0.847656" y="0.5" width="180" height="180" rx="39.1304" fill="url(#paint0_linear_10_32)"/>
<rect x="1.34766" y="1" width="179" height="179" rx="38.6304" stroke="white" stroke-opacity="0.15"/>
<path d="M35.8499 73.7453C39.9708 73.7453 43.145 74.6363 45.3725 76.4183C47.6371 78.2003 48.7694 80.6691 48.7694 83.8247C48.7694 86.1265 48.1754 88.0384 46.9874 89.5606C45.7994 91.0456 44.0731 92.0851 41.8085 92.6791C47.5257 93.7557 50.3844 96.8556 50.3844 101.979C50.3844 105.32 49.1592 107.956 46.709 109.886C44.2959 111.78 40.8061 112.727 36.2397 112.727H22.0394V73.7453H35.8499ZM26.8842 90.6743H36.0727C38.5601 90.6743 40.4906 90.1174 41.8642 89.0037C43.2378 87.8899 43.9246 86.3492 43.9246 84.3816C43.9246 82.414 43.2378 80.8919 41.8642 79.8152C40.5277 78.7015 38.5972 78.1446 36.0727 78.1446H26.8842V90.6743ZM26.8842 108.327H36.2397C39.2097 108.327 41.4744 107.752 43.0336 106.601C44.63 105.45 45.4282 103.854 45.4282 101.812C45.4282 99.6214 44.63 97.9508 43.0336 96.7999C41.4372 95.6119 39.1726 95.0179 36.2397 95.0179H26.8842V108.327ZM55.0647 98.5262C55.0647 95.6305 55.6216 93.0874 56.7354 90.8971C57.8862 88.7067 59.4826 87.0175 61.5245 85.8295C63.5664 84.6044 65.9052 83.9918 68.5411 83.9918C71.1399 83.9918 73.4416 84.5301 75.4464 85.6067C77.4511 86.6834 79.0289 88.2426 80.1798 90.2845C81.3307 92.3264 81.9432 94.7209 82.0175 97.4682C82.0175 97.8766 81.9804 98.5262 81.9061 99.4172H59.8539V99.8071C59.9281 102.591 60.782 104.819 62.4155 106.49C64.049 108.16 66.1837 108.995 68.8195 108.995C70.8614 108.995 72.5877 108.494 73.9985 107.492C75.4464 106.452 76.4116 105.023 76.8942 103.204H81.5163C80.9594 106.1 79.5672 108.476 77.3397 110.332C75.1122 112.151 72.3835 113.061 69.1537 113.061C66.3322 113.061 63.8634 112.467 61.7472 111.279C59.6311 110.054 57.979 108.346 56.791 106.155C55.6402 103.928 55.0647 101.385 55.0647 98.5262ZM77.284 95.6305C77.0613 93.2174 76.1517 91.3426 74.5554 90.0061C72.9961 88.6696 71.0099 88.0013 68.5968 88.0013C66.4435 88.0013 64.5502 88.7067 62.9167 90.1174C61.2832 91.5282 60.355 93.3659 60.1323 95.6305H77.284ZM88.7953 88.5025H83.672V84.3259H88.7953V76.3626H93.3616V84.3259H100.545V88.5025H93.3616V105.264C93.3616 106.452 93.5844 107.306 94.0299 107.826C94.5125 108.309 95.3293 108.55 96.4801 108.55H101.436V112.727H96.2017C93.5287 112.727 91.6168 112.133 90.4659 110.945C89.3521 109.757 88.7953 107.882 88.7953 105.32V88.5025ZM104.4 109.942C104.4 109.014 104.697 108.272 105.291 107.715C105.885 107.121 106.646 106.824 107.574 106.824C108.502 106.824 109.263 107.121 109.857 107.715C110.451 108.272 110.748 109.014 110.748 109.942C110.748 110.87 110.451 111.631 109.857 112.225C109.263 112.782 108.502 113.061 107.574 113.061C106.646 113.061 105.885 112.782 105.291 112.225C104.697 111.631 104.4 110.87 104.4 109.942ZM114.904 112.727L129.773 73.7453H135.509L150.322 112.727H145.143L141.022 102.202H124.037L119.916 112.727H114.904ZM125.485 97.8023H139.574L132.502 79.0356L125.485 97.8023ZM154.732 73.7453H159.577V112.727H154.732V73.7453Z" fill="url(#paint1_linear_10_32)"/>
<defs>
<linearGradient id="paint0_linear_10_32" x1="91.1584" y1="180.5" x2="90.5369" y2="0.499999" gradientUnits="userSpaceOnUse">
<stop stop-color="#00151E"/>
<stop offset="1" stop-color="#00080C"/>
</linearGradient>
<linearGradient id="paint1_linear_10_32" x1="18.2527" y1="91.1634" x2="164.247" y2="89.7032" gradientUnits="userSpaceOnUse">
<stop stop-color="white"/>
<stop offset="1" stop-color="#999999"/>
</linearGradient>
</defs>
</svg>
